<svg width="104" height="104" viewBox="0 0 104 104" fill="none" xmlns="http://www.w3.org/2000/svg">
<g opacity="0.9" filter="url(#filter0_d_7760_103708)">
<rect x="4" width="96" height="96" rx="48" fill="white" shape-rendering="crispEdges"/>
<rect x="6" y="2" width="92" height="92" rx="46" stroke="white" stroke-width="4" shape-rendering="crispEdges"/>
<path d="M38.2898 65.3508L38.8197 65.8808L39.3501 65.3512L52.4197 52.3008L65.4698 65.3508L66.0001 65.8811L66.5305 65.3508L69.3505 62.5308L69.8808 62.0005L69.3505 61.4702L56.3004 48.4201L69.3508 35.3504L69.8804 34.8201L69.3505 34.2902L66.5305 31.4702L66.0001 30.9398L65.4698 31.4702L52.4197 44.5202L39.3501 31.4698L38.8197 30.9402L38.2898 31.4702L35.4698 34.2902L34.9399 34.8201L35.4694 35.3504L48.5199 48.4201L35.4698 61.4702L34.9395 62.0005L35.4698 62.5308L38.2898 65.3508Z" fill="#F4333D" stroke="#F4333D" stroke-width="1.5"/>
</g>
<defs>
<filter id="filter0_d_7760_103708" x="0" y="0" width="104" height="104" filterUnits="userSpaceOnUse" color-interpolation-filters="sRGB">
<feFlood flood-opacity="0" result="BackgroundImageFix"/>
<feColorMatrix in="SourceAlpha" type="matrix" values="0 0 0 0 0 0 0 0 0 0 0 0 0 0 0 0 0 0 127 0" result="hardAlpha"/>
<feOffset dy="4"/>
<feGaussianBlur stdDeviation="2"/>
<feComposite in2="hardAlpha" operator="out"/>
<feColorMatrix type="matrix" values="0 0 0 0 0 0 0 0 0 0 0 0 0 0 0 0 0 0 0.25 0"/>
<feBlend mode="normal" in2="BackgroundImageFix" result="effect1_dropShadow_7760_103708"/>
<feBlend mode="normal" in="SourceGraphic" in2="effect1_dropShadow_7760_103708" result="shape"/>
</filter>
</defs>
</svg>
